<svg xmlns="http://www.w3.org/2000/svg" xmlns:xlink="http://www.w3.org/1999/xlink" width="500" zoomAndPan="magnify" viewBox="0 0 375 374.999991" height="500" preserveAspectRatio="xMidYMid meet" version="1.0"><defs><g/></defs><g fill="#ffde59" fill-opacity="1"><g transform="translate(2.332036, 271.522408)"><g><path d="M 88.71875 3.609375 C 75.757812 3.609375 63.894531 2.09375 53.125 -0.9375 C 42.351562 -3.976562 33.15625 -8.160156 25.53125 -13.484375 C 17.90625 -18.816406 12.257812 -24.925781 8.59375 -31.8125 L 35.078125 -60.34375 L 38.6875 -60.34375 C 44.988281 -51.863281 52.4375 -45.503906 61.03125 -41.265625 C 69.625 -37.023438 78.96875 -34.90625 89.0625 -34.90625 C 98.34375 -34.90625 105.332031 -36.566406 110.03125 -39.890625 C 114.726562 -43.210938 117.078125 -47.96875 117.078125 -54.15625 C 117.078125 -58.96875 115.382812 -63.003906 112 -66.265625 C 108.625 -69.535156 103.15625 -72.085938 95.59375 -73.921875 L 70.484375 -79.953125 C 51.691406 -84.421875 37.96875 -91.265625 29.3125 -100.484375 C 20.65625 -109.710938 16.328125 -121.4375 16.328125 -135.65625 C 16.328125 -147.457031 19.335938 -157.710938 25.359375 -166.421875 C 31.378906 -175.140625 39.859375 -181.789062 50.796875 -186.375 C 61.742188 -190.957031 74.5 -193.25 89.0625 -193.25 C 106.132812 -193.25 120.285156 -190.785156 131.515625 -185.859375 C 142.753906 -180.929688 151.523438 -174.335938 157.828125 -166.078125 L 132.390625 -138.578125 L 128.953125 -138.578125 C 123.671875 -144.535156 117.734375 -148.890625 111.140625 -151.640625 C 104.554688 -154.390625 97.195312 -155.765625 89.0625 -155.765625 C 70.257812 -155.765625 60.859375 -149.921875 60.859375 -138.234375 C 60.859375 -133.304688 62.601562 -129.289062 66.09375 -126.1875 C 69.59375 -123.09375 75.757812 -120.570312 84.59375 -118.625 L 107.96875 -113.46875 C 127.226562 -109.34375 141.296875 -102.722656 150.171875 -93.609375 C 159.054688 -84.503906 163.5 -72.269531 163.5 -56.90625 C 163.5 -44.875 160.519531 -34.269531 154.5625 -25.09375 C 148.601562 -15.925781 140.003906 -8.847656 128.765625 -3.859375 C 117.535156 1.117188 104.1875 3.609375 88.71875 3.609375 Z M 88.71875 3.609375 "/></g></g><g transform="translate(177.183526, 271.522408)"><g><path d="M 110.546875 3.609375 C 92.210938 3.609375 75.992188 -0.195312 61.890625 -7.8125 C 47.796875 -15.4375 36.789062 -26.640625 28.875 -41.421875 C 20.96875 -56.210938 17.015625 -73.984375 17.015625 -94.734375 C 17.015625 -115.597656 20.96875 -133.421875 28.875 -148.203125 C 36.789062 -162.984375 47.738281 -174.1875 61.71875 -181.8125 C 75.707031 -189.4375 91.695312 -193.25 109.6875 -193.25 C 149.6875 -193.25 175.304688 -178.75 186.546875 -149.75 L 153.875 -126.375 L 150.265625 -126.375 C 146.367188 -135.3125 141.296875 -141.957031 135.046875 -146.3125 C 128.796875 -150.664062 120.34375 -152.84375 109.6875 -152.84375 C 95.9375 -152.84375 85.21875 -148.082031 77.53125 -138.5625 C 69.851562 -129.050781 66.015625 -114.441406 66.015625 -94.734375 C 66.015625 -75.242188 69.910156 -60.710938 77.703125 -51.140625 C 85.503906 -41.578125 96.453125 -36.796875 110.546875 -36.796875 C 120.867188 -36.796875 129.609375 -39.570312 136.765625 -45.125 C 143.929688 -50.6875 149.0625 -58.679688 152.15625 -69.109375 L 155.765625 -69.453125 L 189.640625 -50.890625 C 184.828125 -34.847656 175.914062 -21.753906 162.90625 -11.609375 C 149.894531 -1.460938 132.441406 3.609375 110.546875 3.609375 Z M 110.546875 3.609375 "/></g></g></g></svg>